<svg width="292" height="76" viewBox="0 0 292 76" fill="none" xmlns="http://www.w3.org/2000/svg">
<path d="M64.3066 19L74 5.53418V32.4658L64.3066 19L50.6299 38L64.3066 57L74 43.5352V70.4658L64.3066 57L50.6299 76L36.9521 57L23.2744 76L9.59668 57L0 70.3311V43.6689L9.59668 57L23.2744 38L9.59668 19L0 32.3311V5.66895L9.59668 19L23.2744 0L36.9521 19L50.6299 0L64.3066 19ZM23.2744 38L36.9521 57L50.6299 38L36.9521 19L23.2744 38Z" fill="#190000"/>
<path d="M99.6657 40.2345C102.311 40.2345 104.599 40.6708 106.529 41.5437C108.489 42.4167 110.232 43.6017 111.757 45.0982L107.789 49.0269C106.855 47.9981 105.703 47.2024 104.334 46.6412C102.996 46.0489 101.44 45.7528 99.6657 45.7528C98.0787 45.7528 96.6318 46.0336 95.3248 46.5946C94.0489 47.1246 92.9283 47.9042 91.9636 48.9329C90.9988 49.9305 90.2515 51.131 89.7224 52.5338C89.2245 53.9057 88.9751 55.4336 88.9751 57.1172C88.9751 58.8008 89.2245 60.3442 89.7224 61.7472C90.2515 63.119 90.9988 64.3193 91.9636 65.3482C92.9283 66.3457 94.0489 67.1253 95.3248 67.6864C96.6318 68.2163 98.0787 68.4817 99.6657 68.4817C101.595 68.4817 103.229 68.201 104.567 67.6399C105.905 67.0475 107.057 66.221 108.022 65.161L111.943 69.1363C110.449 70.6639 108.691 71.8643 106.668 72.7373C104.645 73.579 102.311 74 99.6657 74C97.2695 74 95.06 73.579 93.0372 72.7373C91.0143 71.8643 89.2396 70.664 87.7146 69.1363C86.2208 67.5775 85.0543 65.7841 84.214 63.7577C83.4049 61.7 83 59.4866 83 57.1172C83 54.779 83.4049 52.5811 84.214 50.5234C85.0543 48.4657 86.2208 46.6724 87.7146 45.1447C89.2396 43.617 91.0143 42.4167 93.0372 41.5437C95.06 40.6709 97.2695 40.2345 99.6657 40.2345Z" fill="#190000"/>
<path fill-rule="evenodd" clip-rule="evenodd" d="M130.845 40.2345C133.21 40.2345 135.404 40.6708 137.427 41.5437C139.45 42.3855 141.224 43.586 142.749 45.1447C144.305 46.6724 145.503 48.4657 146.343 50.5234C147.215 52.5811 147.651 54.7789 147.651 57.1172C147.651 59.4867 147.215 61.7 146.343 63.7577C145.503 65.7841 144.321 67.5775 142.796 69.1363C141.271 70.664 139.497 71.8643 137.474 72.7373C135.451 73.579 133.272 74 130.938 74C128.542 74 126.317 73.5636 124.263 72.6907C122.24 71.8178 120.45 70.6174 118.894 69.0898C117.369 67.5309 116.171 65.7377 115.299 63.7111C114.459 61.6535 114.039 59.44 114.039 57.0707C114.039 54.7324 114.459 52.5499 115.299 50.5234C116.171 48.4657 117.369 46.6724 118.894 45.1447C120.419 43.5859 122.193 42.3855 124.216 41.5437C126.238 40.6708 128.449 40.2345 130.845 40.2345ZM130.845 45.7528C128.698 45.7528 126.815 46.2362 125.196 47.2027C123.578 48.138 122.302 49.4633 121.368 51.178C120.466 52.8616 120.014 54.8259 120.014 57.0707C120.014 58.7542 120.279 60.3131 120.808 61.7472C121.337 63.1502 122.069 64.3505 123.003 65.3482C123.967 66.3458 125.119 67.1253 126.457 67.6864C127.795 68.2476 129.258 68.5282 130.845 68.5282C132.992 68.5282 134.876 68.0448 136.494 67.0783C138.112 66.0807 139.373 64.7246 140.275 63.0099C141.209 61.2952 141.675 59.3154 141.675 57.0707C141.675 55.4183 141.411 53.9057 140.882 52.5338C140.353 51.1309 139.606 49.9305 138.641 48.9329C137.676 47.904 136.524 47.1246 135.186 46.5946C133.879 46.0336 132.432 45.7528 130.845 45.7528Z" fill="#190000"/>
<path d="M255.578 40.2345C257.757 40.2345 259.718 40.6554 261.461 41.4972C263.234 42.3389 264.666 43.4299 265.755 44.7704L261.833 48.6526C260.9 47.5926 259.919 46.8132 258.892 46.3143C257.896 45.8156 256.745 45.5656 255.438 45.5656C253.913 45.5656 252.7 45.878 251.797 46.5015C250.926 47.0939 250.49 47.9511 250.49 49.0735C250.49 50.04 250.77 50.8194 251.33 51.4117C251.891 51.9729 252.622 52.4718 253.524 52.9082C254.458 53.3135 255.469 53.7037 256.558 54.0778C257.679 54.4519 258.784 54.8729 259.873 55.3405C260.993 55.8082 262.005 56.4155 262.908 57.1638C263.841 57.8809 264.588 58.8324 265.148 60.017C265.708 61.1705 265.988 62.6045 265.988 64.3192C265.988 67.3122 264.93 69.6821 262.814 71.428C260.729 73.1427 257.865 74 254.224 74C251.61 74 249.385 73.5481 247.549 72.6442C245.713 71.7088 244.063 70.3365 242.6 68.5282L246.475 64.5995C247.409 65.9089 248.498 66.9228 249.743 67.6399C251.019 68.3569 252.606 68.7154 254.505 68.7154C256.247 68.7154 257.617 68.3723 258.612 67.6864C259.639 66.9693 260.153 65.9872 260.153 64.7401C260.153 63.7113 259.873 62.8694 259.312 62.2147C258.752 61.5289 258.006 60.9675 257.072 60.531C256.17 60.0945 255.158 59.7053 254.037 59.3624C252.948 58.9883 251.844 58.5672 250.723 58.0997C249.634 57.632 248.622 57.0544 247.689 56.3685C246.786 55.6827 246.055 54.7944 245.495 53.7034C244.935 52.581 244.655 51.1934 244.655 49.541C244.655 47.5768 245.137 45.9084 246.102 44.5366C247.067 43.1339 248.373 42.0736 250.023 41.3566C251.672 40.6083 253.524 40.2345 255.578 40.2345Z" fill="#190000"/>
<path d="M281.59 39.767C283.769 39.7671 285.73 40.188 287.472 41.0297C289.246 41.8715 290.678 42.9625 291.767 44.3029L287.845 48.1851C286.911 47.1251 285.931 46.3457 284.904 45.8469C283.908 45.3481 282.757 45.0982 281.45 45.0982C279.925 45.0982 278.711 45.4105 277.809 46.034C276.937 46.6264 276.501 47.4836 276.501 48.606C276.501 49.5724 276.781 50.352 277.341 50.9443C277.901 51.5055 278.633 52.0042 279.536 52.4407C280.469 52.846 281.481 53.2362 282.57 53.6103C283.69 53.9845 284.795 54.4054 285.885 54.8731C287.005 55.3407 288.016 55.9482 288.919 56.6963C289.852 57.4134 290.6 58.3648 291.16 59.5496C291.72 60.7031 292 62.1371 292 63.8517C292 66.8448 290.942 69.2146 288.826 70.9606C286.74 72.6753 283.877 73.5325 280.236 73.5325C277.622 73.5325 275.397 73.0807 273.561 72.1767C271.725 71.2414 270.075 69.8691 268.612 68.0608L272.486 64.132C273.42 65.4415 274.51 66.4553 275.754 67.1724C277.03 67.8895 278.618 68.248 280.517 68.248C282.259 68.2479 283.628 67.9048 284.624 67.219C285.651 66.5019 286.164 65.5197 286.164 64.2726C286.164 63.2438 285.884 62.4019 285.324 61.7472C284.764 61.0614 284.017 60.5 283.084 60.0636C282.181 59.6271 281.169 59.2379 280.049 58.8949C278.96 58.5209 277.855 58.0998 276.735 57.6322C275.646 57.1646 274.634 56.587 273.7 55.9011C272.798 55.2152 272.067 54.327 271.506 53.236C270.946 52.1136 270.666 50.7259 270.666 49.0735C270.666 47.1093 271.149 45.441 272.113 44.0692C273.078 42.6664 274.385 41.6061 276.034 40.8891C277.684 40.1409 279.536 39.767 281.59 39.767Z" fill="#190000"/>
<path d="M168.059 60.5834L180.243 40.7485H184.351V73.5325H178.516V53.204L170.066 66.9852H166.051L157.601 53.204V73.5325H151.767V40.7485H155.874L168.059 60.5834Z" fill="#190000"/>
<path fill-rule="evenodd" clip-rule="evenodd" d="M202.604 40.7485C204.689 40.7485 206.542 41.1694 208.16 42.0112C209.81 42.853 211.116 44.0381 212.081 45.5656C213.046 47.0933 213.528 48.9019 213.528 50.9908C213.528 53.0797 213.046 54.9037 212.081 56.4626C211.116 57.9902 209.81 59.1753 208.16 60.017C206.542 60.8588 204.689 61.2797 202.604 61.2797H195.929V73.5325H190.094V40.7485H202.604ZM195.929 56.322H202.138C203.196 56.322 204.146 56.1192 204.986 55.7139C205.826 55.2775 206.479 54.6699 206.946 53.8906C207.444 53.08 207.693 52.1132 207.693 50.9908C207.693 49.8996 207.444 48.9482 206.946 48.1376C206.479 47.3273 205.826 46.7196 204.986 46.3143C204.146 45.8778 203.196 45.6597 202.138 45.6597H195.929V56.322Z" fill="#190000"/>
<path fill-rule="evenodd" clip-rule="evenodd" d="M241.696 73.5325H235.393L232.994 67.3121H219.235L216.814 73.5325H210.652L224.003 40.7485H228.437L241.696 73.5325ZM221.182 62.3087H231.065L226.145 49.5536L221.182 62.3087Z" fill="#190000"/>
<path d="M161.85 2C164.029 2.00002 165.989 2.42093 167.732 3.26272C169.506 4.10443 170.938 5.19545 172.027 6.53588L168.106 10.4181C167.172 9.35819 166.192 8.5787 165.165 8.07985C164.169 7.581 163.017 7.33114 161.71 7.33114C160.185 7.33117 158.971 7.64349 158.069 8.26703C157.197 8.8594 156.762 9.71664 156.762 10.839C156.762 11.8055 157.042 12.5849 157.602 13.1773C158.162 13.7384 158.893 14.2373 159.796 14.6737C160.73 15.079 161.742 15.4692 162.831 15.8433C163.951 16.2174 165.056 16.6385 166.145 17.106C167.265 17.5737 168.277 18.181 169.18 18.9293C170.113 19.6464 170.86 20.5978 171.42 21.7825C171.98 22.9361 172.26 24.37 172.26 26.0847C172.26 29.0778 171.202 31.4476 169.086 33.1935C167.001 34.9082 164.137 35.7655 160.496 35.7655C157.882 35.7655 155.657 35.3137 153.821 34.4097C151.985 33.4744 150.335 32.1021 148.872 30.2937L152.747 26.365C153.681 27.6744 154.77 28.6883 156.014 29.4054C157.29 30.1225 158.878 30.4809 160.777 30.4809C162.519 30.4809 163.888 30.1378 164.884 29.4519C165.911 28.7348 166.425 27.7527 166.425 26.5056C166.425 25.4768 166.145 24.6349 165.585 23.9802C165.025 23.2943 164.278 22.733 163.344 22.2966C162.442 21.8601 161.43 21.4708 160.31 21.1279C159.221 20.7538 158.115 20.3328 156.995 19.8652C155.906 19.3975 154.894 18.82 153.96 18.1341C153.058 17.4482 152.327 16.5599 151.767 15.469C151.206 14.3466 150.926 12.9589 150.926 11.3065C150.926 9.34231 151.409 7.67395 152.373 6.30216C153.338 4.89939 154.645 3.83912 156.294 3.12209C157.944 2.37382 159.796 2 161.85 2Z" fill="#190000"/>
<path fill-rule="evenodd" clip-rule="evenodd" d="M116.026 35.2981H109.724L107.325 29.0776H93.5658L91.1446 35.2981H84.9827L98.3336 2.51401H102.768L116.026 35.2981ZM95.5126 24.0742H105.396L100.476 11.3191L95.5126 24.0742Z" fill="#190000"/>
<path fill-rule="evenodd" clip-rule="evenodd" d="M130.869 2.51401C133.265 2.51402 135.474 2.91966 137.497 3.73017C139.551 4.54079 141.341 5.69495 142.866 7.19149C144.391 8.65677 145.574 10.3868 146.414 12.382C147.286 14.3774 147.721 16.5444 147.721 18.8828C147.721 21.2211 147.286 23.3881 146.414 25.3835C145.574 27.3789 144.391 29.125 142.866 30.6216C141.372 32.0868 139.598 33.2401 137.545 34.0819C135.522 34.8925 133.327 35.2981 130.962 35.2981H118.264V2.51401H130.869ZM124.1 30.0135H130.728C132.907 30.0135 134.821 29.5608 136.47 28.6567C138.119 27.7214 139.396 26.4124 140.299 24.7289C141.232 23.0453 141.699 21.0809 141.699 18.8362C141.699 16.6226 141.232 14.6891 140.299 13.0366C139.365 11.3842 138.073 10.0907 136.424 9.15539C134.805 8.22011 132.907 7.75205 130.728 7.75205H124.1V30.0135Z" fill="#190000"/>
</svg>
