<svg width="267" height="113" viewBox="0 0 267 113" fill="none" xmlns="http://www.w3.org/2000/svg">
<path d="M0 113V61.4903H11.9234V101.11H51.6557V113H0Z" fill="#1A1A1A"/>
<path d="M61.3514 61.4903V113H140.659V101.11H73.2749V93.1714H140.659V81.2816H73.2749V73.38H140.659V61.4903H61.3514Z" fill="#1A1A1A"/>
<path fill-rule="evenodd" clip-rule="evenodd" d="M152.101 113V61.4903H203.757V113H191.833V93.1714H164.025V113H152.101ZM191.833 73.38H164.025V81.2816H191.833V73.38Z" fill="#1A1A1A"/>
<path d="M207.955 51.5097H145.659V0H163.741V39.62H207.955V51.5097Z" fill="#1A1A1A"/>
<path d="M134.716 51.5097H140.659V0H134.716V51.5097Z" fill="#1A1A1A"/>
<path d="M129.716 0H126.66V51.5097H129.716V0Z" fill="#1A1A1A"/>
<path fill-rule="evenodd" clip-rule="evenodd" d="M64.5435 51.5097H116.199V0H64.5435V51.5097ZM76.4669 11.8897H104.276V39.62H76.4669V11.8897Z" fill="#1A1A1A"/>
<path d="M0 0V51.5097H51.6557V19.7914H27.0214V31.6811H39.7323V39.62H11.9234V11.8897H51.6557V0H0Z" fill="#1A1A1A"/>
<path fill-rule="evenodd" clip-rule="evenodd" d="M257.058 0H213.968V113H257.058C259.799 113 262.141 112.031 264.085 110.093C266.028 108.155 267 105.819 267 103.086V9.91432C267 7.18105 266.028 4.84534 264.085 2.90721C262.141 0.969069 259.799 0 257.058 0ZM255.077 101.11V11.8897L232.465 11.8898V101.11L255.077 101.11Z" fill="#1A1A1A"/>
</svg>
