<svg width="152" height="154" viewBox="0 0 152 154" fill="none" xmlns="http://www.w3.org/2000/svg">
  <path fill="none"
    d="M15.1425 2.42915L1.43209 25.2798C1.18224 25.6963 1.26768 26.232 1.63465 26.55L15.3451 38.4324C15.7209 38.7581 16.2791 38.7581 16.6549 38.4324L30.3653 26.55C30.7323 26.232 30.8178 25.6963 30.5679 25.2799L16.8575 2.42915C16.4691 1.78182 15.5309 1.78181 15.1425 2.42915Z"
    stroke="currentColor" stroke-width="2" />
  <path fill="none"
    d="M45.1425 2.42915L31.4321 25.2798C31.1822 25.6963 31.2677 26.232 31.6347 26.55L45.3451 38.4324C45.7209 38.7581 46.2791 38.7581 46.6549 38.4324L60.3653 26.55C60.7323 26.232 60.8178 25.6963 60.5679 25.2799L46.8575 2.42915C46.4691 1.78182 45.5309 1.78181 45.1425 2.42915Z"
    stroke="currentColor" stroke-width="2" />
  <path fill="none"
    d="M135.143 2.42915L121.432 25.2798C121.182 25.6963 121.268 26.232 121.635 26.55L135.345 38.4324C135.721 38.7581 136.279 38.7581 136.655 38.4324L150.365 26.55C150.732 26.232 150.818 25.6963 150.568 25.2799L136.857 2.42915C136.469 1.78182 135.531 1.78181 135.143 2.42915Z"
    stroke="currentColor" stroke-width="2" />
  <path fill="none"
    d="M105.143 2.42915L91.4321 25.2798C91.1822 25.6963 91.2677 26.232 91.6347 26.55L105.345 38.4324C105.721 38.7581 106.279 38.7581 106.655 38.4324L120.365 26.55C120.732 26.232 120.818 25.6963 120.568 25.2799L106.857 2.42915C106.469 1.78182 105.531 1.78181 105.143 2.42915Z"
    stroke="currentColor" stroke-width="2" />
  <path fill="none"
    d="M75.1425 2.42915L61.4321 25.2798C61.1822 25.6963 61.2677 26.232 61.6347 26.55L75.3451 38.4324C75.7209 38.7581 76.2791 38.7581 76.6549 38.4324L90.3653 26.55C90.7323 26.232 90.8178 25.6963 90.5679 25.2799L76.8575 2.42915C76.4691 1.78182 75.5309 1.78181 75.1425 2.42915Z"
    stroke="currentColor" stroke-width="2" />
  <path fill="none"
    d="M15.1425 40.4292L1.43209 63.2798C1.18224 63.6963 1.26768 64.232 1.63465 64.55L15.3451 76.4324C15.7209 76.7581 16.2791 76.7581 16.6549 76.4324L30.3653 64.55C30.7323 64.232 30.8178 63.6963 30.5679 63.2799L16.8575 40.4292C16.4691 39.7818 15.5309 39.7818 15.1425 40.4292Z"
    stroke="currentColor" stroke-width="2" />
  <path fill="none"
    d="M45.1425 40.4292L31.4321 63.2798C31.1822 63.6963 31.2677 64.232 31.6347 64.55L45.3451 76.4324C45.7209 76.7581 46.2791 76.7581 46.6549 76.4324L60.3653 64.55C60.7323 64.232 60.8178 63.6963 60.5679 63.2799L46.8575 40.4292C46.4691 39.7818 45.5309 39.7818 45.1425 40.4292Z"
    stroke="currentColor" stroke-width="2" />
  <path fill="none"
    d="M135.143 40.4292L121.432 63.2798C121.182 63.6963 121.268 64.232 121.635 64.55L135.345 76.4324C135.721 76.7581 136.279 76.7581 136.655 76.4324L150.365 64.55C150.732 64.232 150.818 63.6963 150.568 63.2799L136.857 40.4292C136.469 39.7818 135.531 39.7818 135.143 40.4292Z"
    stroke="currentColor" stroke-width="2" />
  <path fill="none"
    d="M105.143 40.4292L91.4321 63.2798C91.1822 63.6963 91.2677 64.232 91.6347 64.55L105.345 76.4324C105.721 76.7581 106.279 76.7581 106.655 76.4324L120.365 64.55C120.732 64.232 120.818 63.6963 120.568 63.2799L106.857 40.4292C106.469 39.7818 105.531 39.7818 105.143 40.4292Z"
    stroke="currentColor" stroke-width="2" />
  <path fill="none"
    d="M75.1425 40.4292L61.4321 63.2798C61.1822 63.6963 61.2677 64.232 61.6347 64.55L75.3451 76.4324C75.7209 76.7581 76.2791 76.7581 76.6549 76.4324L90.3653 64.55C90.7323 64.232 90.8178 63.6963 90.5679 63.2799L76.8575 40.4292C76.4691 39.7818 75.5309 39.7818 75.1425 40.4292Z"
    stroke="currentColor" stroke-width="2" />
  <path fill="none"
    d="M15.1425 78.4292L1.43209 101.28C1.18224 101.696 1.26768 102.232 1.63465 102.55L15.3451 114.432C15.7209 114.758 16.2791 114.758 16.6549 114.432L30.3653 102.55C30.7323 102.232 30.8178 101.696 30.5679 101.28L16.8575 78.4292C16.4691 77.7818 15.5309 77.7818 15.1425 78.4292Z"
    stroke="currentColor" stroke-width="2" />
  <path fill="none"
    d="M45.1425 78.4292L31.4321 101.28C31.1822 101.696 31.2677 102.232 31.6347 102.55L45.3451 114.432C45.7209 114.758 46.2791 114.758 46.6549 114.432L60.3653 102.55C60.7323 102.232 60.8178 101.696 60.5679 101.28L46.8575 78.4292C46.4691 77.7818 45.5309 77.7818 45.1425 78.4292Z"
    stroke="currentColor" stroke-width="2" />
  <path fill="none"
    d="M135.143 78.4292L121.432 101.28C121.182 101.696 121.268 102.232 121.635 102.55L135.345 114.432C135.721 114.758 136.279 114.758 136.655 114.432L150.365 102.55C150.732 102.232 150.818 101.696 150.568 101.28L136.857 78.4292C136.469 77.7818 135.531 77.7818 135.143 78.4292Z"
    stroke="currentColor" stroke-width="2" />
  <path fill="none"
    d="M105.143 78.4292L91.4321 101.28C91.1822 101.696 91.2677 102.232 91.6347 102.55L105.345 114.432C105.721 114.758 106.279 114.758 106.655 114.432L120.365 102.55C120.732 102.232 120.818 101.696 120.568 101.28L106.857 78.4292C106.469 77.7818 105.531 77.7818 105.143 78.4292Z"
    stroke="currentColor" stroke-width="2" />
  <path fill="none"
    d="M75.1425 78.4292L61.4321 101.28C61.1822 101.696 61.2677 102.232 61.6347 102.55L75.3451 114.432C75.7209 114.758 76.2791 114.758 76.6549 114.432L90.3653 102.55C90.7323 102.232 90.8178 101.696 90.5679 101.28L76.8575 78.4292C76.4691 77.7818 75.5309 77.7818 75.1425 78.4292Z"
    stroke="currentColor" stroke-width="2" />
  <path fill="none"
    d="M15.1425 116.429L1.43209 139.28C1.18224 139.696 1.26768 140.232 1.63465 140.55L15.3451 152.432C15.7209 152.758 16.2791 152.758 16.6549 152.432L30.3653 140.55C30.7323 140.232 30.8178 139.696 30.5679 139.28L16.8575 116.429C16.4691 115.782 15.5309 115.782 15.1425 116.429Z"
    stroke="currentColor" stroke-width="2" />
  <path fill="none"
    d="M45.1425 116.429L31.4321 139.28C31.1822 139.696 31.2677 140.232 31.6347 140.55L45.3451 152.432C45.7209 152.758 46.2791 152.758 46.6549 152.432L60.3653 140.55C60.7323 140.232 60.8178 139.696 60.5679 139.28L46.8575 116.429C46.4691 115.782 45.5309 115.782 45.1425 116.429Z"
    stroke="currentColor" stroke-width="2" />
  <path fill="none"
    d="M135.143 116.429L121.432 139.28C121.182 139.696 121.268 140.232 121.635 140.55L135.345 152.432C135.721 152.758 136.279 152.758 136.655 152.432L150.365 140.55C150.732 140.232 150.818 139.696 150.568 139.28L136.857 116.429C136.469 115.782 135.531 115.782 135.143 116.429Z"
    stroke="currentColor" stroke-width="2" />
  <path fill="none"
    d="M105.143 116.429L91.4321 139.28C91.1822 139.696 91.2677 140.232 91.6347 140.55L105.345 152.432C105.721 152.758 106.279 152.758 106.655 152.432L120.365 140.55C120.732 140.232 120.818 139.696 120.568 139.28L106.857 116.429C106.469 115.782 105.531 115.782 105.143 116.429Z"
    stroke="currentColor" stroke-width="2" />
  <path fill="none"
    d="M75.1425 116.429L61.4321 139.28C61.1822 139.696 61.2677 140.232 61.6347 140.55L75.3451 152.432C75.7209 152.758 76.2791 152.758 76.6549 152.432L90.3653 140.55C90.7323 140.232 90.8178 139.696 90.5679 139.28L76.8575 116.429C76.4691 115.782 75.5309 115.782 75.1425 116.429Z"
    stroke="currentColor" stroke-width="2" />
</svg>