<svg width="286" height="286" viewBox="0 0 286 286" fill="none" xmlns="http://www.w3.org/2000/svg">
  <rect fill="none" x="1.65901" y="175.5" width="62" height="62" transform="rotate(-45 1.65901 175.5)"
    stroke="currentColor" />
  <rect fill="none" x="1.65901" y="175.5" width="62" height="62" transform="rotate(-45 1.65901 175.5)"
    stroke="currentColor" />
  <rect fill="none" x="66.659" y="175.5" width="62" height="62" transform="rotate(-45 66.659 175.5)"
    stroke="currentColor" />
  <rect fill="none" x="1.65901" y="240.5" width="62" height="62" transform="rotate(-45 1.65901 240.5)"
    stroke="currentColor" />
  <rect fill="none" x="1.65901" y="240.5" width="62" height="62" transform="rotate(-45 1.65901 240.5)"
    stroke="currentColor" />
  <rect fill="none" x="66.659" y="240.5" width="62" height="62" transform="rotate(-45 66.659 240.5)"
    stroke="currentColor" />
  <rect fill="none" x="131.659" y="175.5" width="62" height="62" transform="rotate(-45 131.659 175.5)"
    stroke="currentColor" />
  <rect fill="none" x="131.659" y="175.5" width="62" height="62" transform="rotate(-45 131.659 175.5)"
    stroke="currentColor" />
  <rect fill="none" x="196.659" y="175.5" width="62" height="62" transform="rotate(-45 196.659 175.5)"
    stroke="currentColor" />
  <rect fill="none" x="131.659" y="240.5" width="62" height="62" transform="rotate(-45 131.659 240.5)"
    stroke="currentColor" />
  <rect fill="none" x="131.659" y="240.5" width="62" height="62" transform="rotate(-45 131.659 240.5)"
    stroke="currentColor" />
  <rect fill="none" x="196.659" y="240.5" width="62" height="62" transform="rotate(-45 196.659 240.5)"
    stroke="currentColor" />
  <rect fill="none" x="1.65901" y="45.5" width="62" height="62" transform="rotate(-45 1.65901 45.5)"
    stroke="currentColor" />
  <rect fill="none" x="1.65901" y="45.5" width="62" height="62" transform="rotate(-45 1.65901 45.5)"
    stroke="currentColor" />
  <rect fill="none" x="66.659" y="45.5" width="62" height="62" transform="rotate(-45 66.659 45.5)"
    stroke="currentColor" />
  <rect fill="none" x="1.65901" y="110.5" width="62" height="62" transform="rotate(-45 1.65901 110.5)"
    stroke="currentColor" />
  <rect fill="none" x="1.65901" y="110.5" width="62" height="62" transform="rotate(-45 1.65901 110.5)"
    stroke="currentColor" />
  <rect fill="none" x="66.659" y="110.5" width="62" height="62" transform="rotate(-45 66.659 110.5)"
    stroke="currentColor" />
  <rect fill="none" x="131.659" y="45.5" width="62" height="62" transform="rotate(-45 131.659 45.5)"
    stroke="currentColor" />
  <rect fill="none" x="131.659" y="45.5" width="62" height="62" transform="rotate(-45 131.659 45.5)"
    stroke="currentColor" />
  <rect fill="none" x="196.659" y="45.5" width="62" height="62" transform="rotate(-45 196.659 45.5)"
    stroke="currentColor" />
  <rect fill="none" x="131.659" y="110.5" width="62" height="62" transform="rotate(-45 131.659 110.5)"
    stroke="currentColor" />
  <rect fill="none" x="131.659" y="110.5" width="62" height="62" transform="rotate(-45 131.659 110.5)"
    stroke="currentColor" />
  <rect fill="none" x="196.659" y="110.5" width="62" height="62" transform="rotate(-45 196.659 110.5)"
    stroke="currentColor" />
</svg>